<svg width="913" height="260" viewBox="0 0 913 260" fill="none" xmlns="http://www.w3.org/2000/svg">
<path d="M0 153.183H78.1626V248.696H65.8643V164.508H12.2983V248.696H0V153.183Z" fill="#4A4A4A"/>
<path d="M103.905 202.713C104.588 224.818 117.706 239.963 139.433 239.963C154.328 239.963 168.949 233.004 174.688 213.083L185.62 217.995C178.651 242.01 158.974 250.879 139.433 250.879C111.557 250.879 91.8797 231.64 91.8797 200.94C91.8797 170.239 111.557 151 139.433 151C169.222 151 186.713 169.693 185.62 202.713H103.905ZM104.588 191.798H173.458C171.819 175.56 162.253 161.916 139.433 161.916C120.302 161.916 107.731 173.787 104.588 191.798Z" fill="#4A4A4A"/>
<path d="M199.234 153.183H211.532L242.688 153.32C270.837 153.456 275.62 174.605 275.62 183.065C275.62 192.753 269.334 212.81 242.688 212.81H211.532V248.696H199.234V153.183ZM211.532 202.031C218.774 201.758 237.222 202.168 240.638 202.168C257.719 202.168 263.595 192.616 263.595 183.065C263.595 173.923 258.266 164.372 242.688 164.099C242.414 164.099 224.377 164.099 211.532 163.962V202.031Z" fill="#4A4A4A"/>
<path d="M359.3 192.07C356.703 172.013 343.858 161.916 327.324 161.916C306.007 161.916 291.796 175.697 291.796 200.94C291.796 226.728 306.554 239.963 327.051 239.963C345.908 239.963 359.163 228.775 362.989 210.491L374.331 214.584C367.772 238.872 351.374 250.879 327.187 250.879C295.895 250.879 279.771 230.958 279.771 201.212C279.771 167.51 300.541 151 326.777 151C350.827 151 367.362 164.918 371.051 189.205L359.3 192.07Z" fill="#4A4A4A"/>
<path d="M494.148 153.183H506.446V193.844H560.012V153.183H572.31V248.696H560.012V205.169H506.446V248.696H494.148V153.183Z" fill="#4A4A4A"/>
<path d="M652.575 248.696L651.208 229.32V211.037V210.354L651.345 229.048L651.208 229.32C644.923 241.874 626.885 250.743 612.674 250.743C598.052 250.743 583.294 241.328 583.294 223.999C583.294 211.582 592.04 200.257 606.251 195.072C618.823 190.57 639.183 187.841 651.072 187.841L651.208 196.573H651.072V187.158C651.072 181.018 650.662 161.916 624.015 161.916C600.922 161.916 597.232 178.699 595.319 187.022L583.431 184.429C584.934 175.151 592.586 151 624.562 151C651.345 151 663.37 167.647 663.37 190.16V229.32C663.37 235.461 663.37 238.053 671.569 238.053L677.991 238.189V248.696H652.575ZM595.866 224.272C595.866 230.958 599.146 239.008 612.674 239.008C631.531 239.008 649.705 223.726 651.208 211.037L651.072 196.573C643.966 196.983 621.829 201.349 609.667 205.852C598.599 209.945 595.866 218.268 595.866 224.272Z" fill="#4A4A4A"/>
<path d="M741.108 153.183H753.543V198.893L791.531 153.183H806.835L774.586 191.525L813.941 248.696H799.866L766.798 200.94L753.543 216.631V248.696H741.108V216.631L727.853 200.94L694.784 248.696H680.709L720.064 191.525L687.815 153.183H703.12L741.108 198.893V153.183Z" fill="#4A4A4A"/>
<path d="M861.993 250.879C834.39 250.879 823.458 232.322 823.458 208.171V153.32H835.483V204.896C835.483 230.548 846.279 239.963 862.95 239.963C887.82 239.963 896.702 218.95 896.838 199.302L897.248 153.183H909V248.696H898.615L897.795 226.728H897.385C896.702 232.732 889.323 250.879 861.993 250.879Z" fill="#4A4A4A"/>
<path d="M640.797 25.9162C653.389 28.0254 665.649 33.8076 672.601 44.5161C679.337 54.8925 678.002 67.8608 675.947 80.0601C673.886 92.2908 670.907 105.017 661.123 112.639C650.989 120.534 637.358 122.512 624.776 119.925C612.596 117.422 602.456 109.471 595.515 99.1534C588.755 89.1035 586.174 77.0427 587.859 65.0481C589.6 52.6585 594.726 40.5939 604.787 33.1568C615.022 25.5909 628.244 23.8135 640.797 25.9162Z" fill="#FF69B4"/>
<path d="M590.766 32.1153C593.806 40.5775 601.177 56.7848 593.971 69.5789C589.754 77.066 586.127 84.1207 577.457 84.1207C566.109 84.1207 569.026 69.5789 577.457 69.5789C585.388 69.5789 593.724 76.4801 584.605 100.388M600.379 27.9253C604.158 31.0472 614.588 35.6526 624.533 36.0588C638.288 36.6206 645.034 34.0248 657.56 23.7353C663.966 18.4736 669.309 7.3662 662.243 3.03166C655.096 -1.35285 648.098 9.15438 646.222 17.327C644.104 26.5595 647.36 36.39 655.632 40.926C663.273 45.1161 671.406 48.8131 679.047 43.1443C682.69 40.4414 684.909 32.7922 680.482 30.8829C673.624 27.9253 667.341 42.4535 668.898 51.5865C670.859 63.0898 675.306 65.6354 695.27 65.6354" stroke="black" stroke-width="3" stroke-linecap="round" stroke-linejoin="round"/>
<path d="M613.485 54.7285C613.978 58.5899 615.408 66.2634 617.183 66.0662C618.957 65.869 620.88 58.4256 621.619 54.7285" stroke="black" stroke-width="3" stroke-linecap="round" stroke-linejoin="round"/>
<path d="M644.048 54.7285C644.526 58.5886 645.912 66.2596 647.633 66.0625C649.354 65.8654 651.218 58.4244 651.935 54.7285" stroke="black" stroke-width="3" stroke-linecap="round" stroke-linejoin="round"/>
<path d="M636.654 61.3833H629.013C630.163 64.341 633.105 70.3549 635.668 70.7492" stroke="black" stroke-width="3" stroke-linecap="round" stroke-linejoin="round"/>
<path d="M647.498 76.9109C645.444 81.7582 641.337 91.6992 633.45 91.6992C627.037 91.6992 621.865 82.0868 620.633 76.9109" stroke="black" stroke-width="3" stroke-linecap="round" stroke-linejoin="round"/>
<path d="M629.506 118.318V152.085C626.548 143.705 627.288 152.085 622.851 152.085" stroke="black" stroke-width="3" stroke-linecap="round" stroke-linejoin="round"/>
<path d="M635.914 118.564V155.042C632.957 146.662 633.696 155.042 629.26 155.042" stroke="black" stroke-width="3" stroke-linecap="round" stroke-linejoin="round"/>
<path d="M664.998 92.1921C666.97 96.7929 671.949 105.502 676.089 103.53C680.23 101.558 690.467 98.929 695.068 97.861" stroke="black" stroke-width="3" stroke-linecap="round" stroke-linejoin="round"/>
<path d="M678.8 109.339C677.157 103.095 673.082 94.354 669.927 109.339M678.8 109.339C679.129 109.75 679.293 109.832 680.772 109.832C682.251 109.832 682.004 111.862 682.004 113.095C682.004 116.052 681.857 120.489 681.265 120.489C680.526 120.489 668.67 121.341 668.202 119.938C667.956 119.198 667.709 113.529 667.709 111.065C667.709 110.49 668.153 109.339 669.927 109.339M678.8 109.339C676.089 110.572 672.639 110.572 669.927 109.339" stroke="black" stroke-width="3" stroke-linecap="round" stroke-linejoin="round"/>
<path d="M506.264 151.479C500.479 146.882 497.783 150.841 497.158 153.394H509.477L501.778 139.755L517.397 129.635" stroke="black" stroke-width="3" stroke-linecap="round" stroke-linejoin="round"/>
<path d="M536.926 56.8991C546.131 62.2991 549.754 73.0069 552.98 83.179C556.267 93.542 559.806 104.635 555.185 114.475C550.391 124.682 540.08 131.292 529.126 133.97C518.718 136.514 507.889 133.84 498.735 128.272C490.1 123.02 484.768 114.381 481.305 104.886C477.58 94.669 474.079 83.3987 478.801 73.6026C483.653 63.5384 494.527 58.2711 505.265 55.1853C515.825 52.1507 527.45 51.3392 536.926 56.8991Z" fill="#FFA500"/>
<path d="M489.679 114.016L479.119 118.856L497.818 129.635" stroke="black" stroke-width="3" stroke-linecap="round" stroke-linejoin="round"/>
<path d="M526.557 85.1099L533.948 83.8776" stroke="black" stroke-width="3" stroke-linecap="round" stroke-linejoin="round"/>
<path d="M507.722 86.9014L500.238 87.2586" stroke="black" stroke-width="3" stroke-linecap="round" stroke-linejoin="round"/>
<path d="M523.572 102.902C523.572 102.902 521.576 104.191 520.124 104.494C518.634 104.804 516.228 104.384 516.228 104.384" stroke="black" stroke-width="3" stroke-linecap="round" stroke-linejoin="round"/>
<path d="M517.175 86.3336L516.852 93.669C517.509 93.5989 519.915 93.3417 519.915 93.3417" stroke="black" stroke-width="3" stroke-linecap="round" stroke-linejoin="round"/>
<path d="M520.286 109.231L525.317 141.515" stroke="black" stroke-width="3" stroke-linecap="round" stroke-linejoin="round"/>
<path d="M516.859 97.8718L510.721 100.402L509.038 129.635" stroke="black" stroke-width="3" stroke-linecap="round" stroke-linejoin="round"/>
<path d="M520.839 97.1162L527.433 97.8958L536.944 125.589" stroke="black" stroke-width="3" stroke-linecap="round" stroke-linejoin="round"/>
<path d="M536.316 130.515L546.876 137.775L560.735 152.294H573.054C572.43 149.74 569.734 145.782 563.949 150.379" stroke="black" stroke-width="3" stroke-linecap="round" stroke-linejoin="round"/>
<path d="M546.656 111.376L558.095 124.135L567.995 87.1772" stroke="black" stroke-width="3" stroke-linecap="round" stroke-linejoin="round"/>
<path d="M502.482 37.5883L559.158 66.22L551.601 67.6919M502.482 37.5883L465.444 84.4715L482.718 81.1072M502.482 37.5883L482.718 81.1072M502.482 37.5883L497.617 78.2054M502.482 37.5883L509.926 75.8084M502.482 37.5883L522.882 73.2851M502.482 37.5883L536.701 70.5937M502.482 37.5883L551.601 67.6919M482.718 81.1072L497.617 78.2054M497.617 78.2054L509.926 75.8084M509.926 75.8084L522.882 73.2851M522.882 73.2851L536.701 70.5937M536.701 70.5937L551.601 67.6919" stroke="black" stroke-width="3" stroke-linecap="round" stroke-linejoin="round"/>
<path d="M186.396 139.538L192.841 154.77H195.965" stroke="black" stroke-width="3" stroke-linecap="round" stroke-linejoin="round"/>
<path d="M251.5 201C258.5 181.5 211.5 170.5 196.551 154.575" stroke="#8A2BE2" stroke-width="3" stroke-linecap="round" stroke-linejoin="round"/>
<path d="M172.704 92.0187C181.606 96.0906 185.385 106.124 188.602 115.369C191.735 124.368 193.897 133.954 190.381 142.811C186.696 152.094 179.219 159.806 169.727 162.916C160.521 165.933 150.895 162.697 142.102 158.631C133.338 154.578 124.15 149.536 121.031 140.398C117.961 131.402 122.308 121.984 126.719 113.564C130.84 105.697 136.629 99.0408 144.671 95.273C153.527 91.1239 163.811 87.9507 172.704 92.0187Z" fill="#8A2BE2"/>
<path d="M166.087 112.394C166.533 115.439 168.095 121.628 170.774 122.02L166.422 125.283" stroke="black" stroke-width="3" stroke-linecap="round" stroke-linejoin="round"/>
<path d="M149.046 117.471C148.604 118.586 147.85 120.311 147.024 121.849M144.606 125.092C145.325 124.705 146.209 123.368 147.024 121.849M147.024 121.849C149.288 126.605 155.887 136.668 164.175 138.873C174.535 141.629 183.416 131.739 185.224 123.146" stroke="black" stroke-width="3" stroke-linecap="round" stroke-linejoin="round"/>
<ellipse cx="1.75755" cy="2.53868" rx="1.75755" ry="2.53868" transform="matrix(-1 0 0 1 180.538 114.347)" fill="black"/>
<ellipse cx="1.75755" cy="2.53868" rx="1.75755" ry="2.53868" transform="matrix(-1 0 0 1 159.447 114.347)" fill="black"/>
<path d="M165.306 161.41V190.312H176.241C175.687 188.045 173.294 184.532 168.158 188.612" stroke="black" stroke-width="3" stroke-linecap="round" stroke-linejoin="round"/>
<path d="M154.37 161.215V192.265H165.306C164.751 189.998 162.358 186.484 157.223 190.565" stroke="black" stroke-width="3" stroke-linecap="round" stroke-linejoin="round"/>
<path d="M242.34 190.331C248.619 191.368 248.975 192.59 248.057 197.179C247.411 200.406 247.156 201 244.308 202.656C241.861 204.078 238.703 204.294 235.554 204.145C232.19 203.986 228.487 203.764 226.512 201.814C224.443 199.771 224.75 196.567 225.927 194.19C227.084 191.85 229.319 188.176 232.515 187.198C235.99 186.135 238.283 189.66 242.34 190.331Z" fill="#8A2BE2"/>
<path d="M230.077 203.794H251.754M254.488 203.794H252.535M252.535 203.794L255.464 188.953M252.535 203.794H251.754M251.754 203.794L251.363 188.172M238.475 203.404C233.723 202.102 224.554 201.66 230.858 193.444C237.303 185.047 250.973 201.451 239.06 200.084C235.52 199.678 236.522 196.959 237.303 196.374" stroke="black" stroke-width="3" stroke-linecap="round" stroke-linejoin="round"/>
<path d="M130.155 141.101L125.468 148.912V169.026" stroke="black" stroke-width="3" stroke-linecap="round" stroke-linejoin="round"/>
<path d="M178.295 85.3939C181.431 86.0965 187.066 88.3805 184.52 91.8965C181.338 96.2916 174.887 96.0461 176.787 92.7018C178.688 89.3575 182.31 96.3876 179.087 99.2088C175.865 102.03 162.757 91.707 166.836 90.148C170.914 88.5889 175.171 89.206 172.706 92.2983C170.242 95.3907 169.721 98.6752 165.019 98.6027C160.316 98.5302 156.37 96.7663 155.799 90.6266C155.229 84.487 158.413 82.0545 159.833 83.5685C161.253 85.0826 165.473 88.0509 162.601 91.2992C159.729 94.5474 158.022 97.9109 153.941 97.5074C149.86 97.1039 144.633 96.3908 145.482 91.7652C146.332 87.1396 146.037 84.1669 148.468 85.3883C150.898 86.6098 152.495 90.3 151.507 92.3608C150.518 94.4217 149.627 97.4734 147.142 98.7975C144.656 100.122 141.393 101.369 139.253 99.1949C137.113 97.021 133.513 91.7591 135.377 90.766C137.241 89.7729 139.415 87.633 140.662 90.8961C141.91 94.1592 142.883 96.2179 139.368 98.0289C137.375 99.0557 136.181 99.6569 134.827 100.131M134.827 100.131C133.793 100.493 132.665 100.781 131.016 101.128C127.209 101.929 125.46 101.756 125.904 99.2486C126.348 96.7415 124.343 93.2072 128.054 93.378C131.766 93.5487 135.565 96.4754 134.827 100.131ZM134.827 100.131C134.724 102.84 134.266 108.249 133.255 108.212C131.992 108.165 126.794 108.944 128.274 106.447C129.755 103.95 134.377 101.666 135.042 104.381C135.708 107.097 137.091 112.141 130.941 111.144" stroke="black" stroke-width="3" stroke-linecap="round" stroke-linejoin="round"/>
<path d="M327.374 148.737C320.592 143.349 317.432 147.989 316.699 150.983H331.142L327.374 124.161L331.142 110.234" stroke="black" stroke-width="3" stroke-linecap="round" stroke-linejoin="round"/>
<path d="M293.038 38.3628C301.39 27.624 320.641 22.4054 335.725 21.1876C351.619 19.9043 367.807 25.2533 377.891 35.7678C387.588 45.879 387.353 59.5985 384.91 72.4737C382.396 85.7235 377.765 99.3377 364.457 106.572C350.071 114.392 331.18 116.491 315.92 109.975C301.505 103.819 296.155 89.5201 293.038 76.0742C290.281 64.18 285.172 48.4776 293.038 38.3628Z" fill="#E30B5D"/>
<path fill-rule="evenodd" clip-rule="evenodd" d="M291.942 71.4133C289.382 44.7267 273.372 42.9214 331.461 42.9214C384.4 42.9214 384.44 42.7319 386.508 47.0333C388.575 51.3346 386.508 65.2685 384.441 71.4133C382.787 76.3291 321.748 73.4616 291.942 71.4133ZM318.022 52.979C319.688 50.4792 322.803 49.3219 326.292 49.9067C332.041 50.8698 330.872 61.6173 325 61.7865C319.879 61.9341 315.63 56.5706 318.022 52.979ZM343.091 53.5935C344.756 51.0936 347.871 49.9364 351.361 50.5211C357.109 51.4843 355.94 62.2317 350.069 62.401C344.948 62.5486 340.698 57.185 343.091 53.5935ZM331.461 65.4734C332.495 64.2444 338.18 64.4492 340.248 65.2685C345.503 67.351 342.76 70.4247 336.888 70.594C331.767 70.7416 328.619 68.8526 331.461 65.4734Z" fill="black"/>
<path d="M340.248 65.2685C338.18 64.4492 332.495 64.2444 331.461 65.4734C328.619 68.8526 331.767 70.7416 336.888 70.594C342.76 70.4247 345.503 67.351 340.248 65.2685Z" fill="black"/>
<path fill-rule="evenodd" clip-rule="evenodd" d="M291.942 71.4133C289.382 44.7267 273.372 42.9214 331.461 42.9214C384.4 42.9214 384.44 42.7319 386.508 47.0333C388.575 51.3346 386.508 65.2685 384.441 71.4133C382.787 76.3291 321.748 73.4616 291.942 71.4133ZM318.022 52.979C319.688 50.4792 322.803 49.3219 326.292 49.9067C332.041 50.8698 330.872 61.6173 325 61.7865C319.879 61.9341 315.63 56.5706 318.022 52.979ZM343.091 53.5935C344.756 51.0936 347.871 49.9364 351.361 50.5211C357.109 51.4843 355.94 62.2317 350.069 62.401C344.948 62.5486 340.698 57.185 343.091 53.5935ZM331.461 65.4734C332.495 64.2444 338.18 64.4492 340.248 65.2685C345.503 67.351 342.76 70.4247 336.888 70.594C331.767 70.7416 328.619 68.8526 331.461 65.4734Z" stroke="black" stroke-width="3" stroke-linecap="round" stroke-linejoin="round"/>
<path d="M340.248 65.2685C338.18 64.4492 332.495 64.2444 331.461 65.4734C328.619 68.8526 331.767 70.7416 336.888 70.594C342.76 70.4247 345.503 67.351 340.248 65.2685Z" stroke="black" stroke-width="3" stroke-linecap="round" stroke-linejoin="round"/>
<ellipse cx="325.21" cy="56.5905" rx="2.32112" ry="2.57902" fill="black"/>
<ellipse cx="350.484" cy="57.6222" rx="2.32112" ry="2.57902" fill="black"/>
<path d="M333.205 65.1013H338.879" stroke="black" stroke-width="3" stroke-linecap="round" stroke-linejoin="round"/>
<path d="M351.931 152.09C362 153.5 360.267 162.006 361 165L348.163 154.335L351.931 128.287L349.453 110.75" stroke="black" stroke-width="3" stroke-linecap="round" stroke-linejoin="round"/>
<path d="M375.501 87.7966L354.095 105.334L326.5 99.4022" stroke="black" stroke-width="3" stroke-linecap="round" stroke-linejoin="round"/>
<path d="M304.32 89.344L301.5 107.5L351.258 97.339" stroke="black" stroke-width="3" stroke-linecap="round" stroke-linejoin="round"/>
<path d="M318.969 78.3057L316.405 86.5673L345.38 79.9815L318.969 78.3057Z" fill="black" stroke="black" stroke-width="3" stroke-linecap="round" stroke-linejoin="round"/>
<path d="M322.91 79.8027L325.397 79.9426C325.397 79.9426 325.815 82.7248 325.226 82.9734C323.86 83.5503 322.743 83.4442 322.74 82.8335C322.735 82.0513 322.91 79.8027 322.91 79.8027Z" fill="#E30B5D"/>
<path d="M245.08 36.2948C257.452 38.1305 270.308 42.8297 276.648 55.2652C283.002 67.7285 280.691 83.2091 275.781 96.5181C271.125 109.142 262.802 119.814 251.419 123.658C240.319 127.406 228.639 123.337 219.188 115.627C210.027 108.154 204.17 96.7919 202.715 83.9286C201.158 70.1511 202.658 55.246 211.268 45.5648C220.009 35.7365 232.993 34.5015 245.08 36.2948Z" fill="#00CED1"/>
<path d="M272.567 90C274.598 96.896 276.984 102.169 279.968 104.247C284.405 104.682 298.972 103.269 300 102.5C302.174 100.875 306.587 103.983 304.5 105" stroke="black" stroke-width="3" stroke-linecap="round" stroke-linejoin="round"/>
<ellipse cx="245.732" cy="69.7878" rx="2.52729" ry="2.78001" transform="rotate(-4.66715 245.732 69.7878)" fill="black"/>
<path d="M248.117 86.5823C254.051 87.8499 257.377 87.6088 263.23 85.3484" stroke="black" stroke-width="3" stroke-linecap="round" stroke-linejoin="round"/>
<path d="M259.84 85.1576C259.699 80.4097 256.918 83.2643 255.546 85.2851C254.055 83.3493 251.11 80.6647 251.251 85.4126C251.392 90.1605 254.321 92.2946 255.768 92.7682C257.184 92.2097 259.981 89.9055 259.84 85.1576Z" stroke="black" stroke-width="3" stroke-linecap="round" stroke-linejoin="round"/>
<path d="M245.447 69.4002C243.723 70.0078 246.49 68.3828 245.984 69.7671L239.604 69.2736M245.447 69.4002C246.758 68.938 243.511 67.6751 245.447 69.4002ZM245.447 69.4002L242.496 64.3161M245.447 69.4002L248.384 65.0068" stroke="black" stroke-width="3" stroke-linecap="round" stroke-linejoin="round"/>
<path d="M254.306 75.4271C255.727 75.2266 257.658 74.2406 254.018 71.9006" stroke="black" stroke-width="3" stroke-linecap="round" stroke-linejoin="round"/>
<path d="M276.73 26C262.577 40.911 273.191 56.8329 293.157 40.911L276.73 26Z" fill="#00CED1" stroke="#00CED1" stroke-width="3" stroke-linecap="round" stroke-linejoin="round"/>
<path d="M202.427 26C216.58 40.911 205.966 56.8329 186 40.911L202.427 26Z" fill="#00CED1" stroke="#00CED1" stroke-width="3" stroke-linecap="round" stroke-linejoin="round"/>
<path d="M236.04 41.1636L231.491 54.3054M239.578 41.1636L241.347 54.3054M242.864 41.1636L264.093 52.2836M232.249 41.1636L211.778 56.3273M202.427 29.7908L203.691 42.9327M203.691 42.9327L196.362 36.109M203.691 42.9327H191.56M276.982 30.549L274.961 42.9327M274.961 42.9327L281.784 35.8563M274.961 42.9327L288.103 39.8999" stroke="black" stroke-width="3" stroke-linecap="round" stroke-linejoin="round"/>
<path d="M235.535 157.166C240.084 157.166 239.326 148.573 242.359 157.166L239.832 138.717L242.359 122.542" stroke="black" stroke-width="3" stroke-linecap="round" stroke-linejoin="round"/>
<path d="M248.171 121.026V158.43C251.204 149.837 250.446 158.43 254.995 158.43" stroke="black" stroke-width="3" stroke-linecap="round" stroke-linejoin="round"/>
<path d="M204.955 87.6658C199.087 92.0737 197.626 93.7313 194.087 98.0276C195.857 100.302 204.25 106.873 213.348 108.895C222.446 110.917 218.319 113.107 215.117 113.95" stroke="black" stroke-width="3" stroke-linecap="round" stroke-linejoin="round"/>
<ellipse cx="262.594" cy="68.1162" rx="2.52729" ry="2.78001" transform="rotate(-4.66715 262.594 68.1162)" fill="black"/>
<path d="M259.516 64.2857L262.846 68.0955C263.352 66.7112 261.101 68.4512 262.825 67.8436M262.825 67.8436C264.137 67.3814 261.645 66.0568 263.581 67.7819L267.026 66.2082M262.825 67.8436L263.716 62.9285" stroke="black" stroke-width="3" stroke-linecap="round" stroke-linejoin="round"/>
<ellipse cx="260.707" cy="76.1725" rx="1.26364" ry="1.26364" transform="rotate(-4.66715 260.707 76.1725)" fill="black"/>
<path d="M60.3558 38.1812C72.0671 39.2325 82.6511 45.4269 90.0875 54.5351C97.2981 63.3668 100.22 74.6989 99.4584 86.0748C98.694 97.4927 94.5609 108.667 85.9585 116.213C77.3183 123.793 65.6617 126.625 54.1992 125.779C42.7796 124.936 31.7965 120.338 24.321 111.664C16.8726 103.022 14.2784 91.5233 14.8558 80.1286C15.4464 68.4741 18.921 56.8266 27.5007 48.9168C36.3068 40.7983 48.4264 37.1103 60.3558 38.1812Z" fill="#FFF44F"/>
<path d="M53.4703 122.007V156.544H40.4025C41.0653 153.835 43.9251 149.636 50.0613 154.512" stroke="black" stroke-width="3" stroke-linecap="round" stroke-linejoin="round"/>
<path d="M66.5382 121.774V158.877H53.4703C54.1332 156.168 56.993 151.97 63.1292 156.846" stroke="black" stroke-width="3" stroke-linecap="round" stroke-linejoin="round"/>
<path d="M35.0353 78.6216L32.4684 85.6222L35.502 84.9221" stroke="black" stroke-width="3" stroke-linecap="round" stroke-linejoin="round"/>
<path d="M40.1692 88.189C39.3913 89.6669 36.9022 92.1093 33.1686 90.0558" stroke="black" stroke-width="3" stroke-linecap="round" stroke-linejoin="round"/>
<ellipse cx="42.9693" cy="74.1876" rx="2.10018" ry="2.10018" fill="black"/>
<ellipse cx="27.1013" cy="71.8541" rx="2.10018" ry="2.10018" fill="black"/>
<path d="M38.3728 111.973C38.3728 111.973 36.4001 109.746 34.7079 109.647C31.2509 109.445 34.3255 117.859 35.3038 118.495C36.2822 119.13 44.7954 106.629 45.8836 108.894C46.9717 111.16 49.9126 117.288 46.4795 117.742C44.6192 117.988 41.8833 115.479 41.8833 115.479" stroke="black" stroke-width="3" stroke-linecap="round" stroke-linejoin="round"/>
<path d="M95.6335 84.9813C103.019 86.1801 120.19 88.4033 103.567 100.849C88.5578 112.088 89.5035 108.796 91.4448 104.273" stroke="black" stroke-width="3" stroke-linecap="round" stroke-linejoin="round"/>
<path d="M15.2002 83.0374C8.19961 85.3709 -3.60804 88.4978 10.7665 99.1388C20.3341 106.221 19.4006 105.206 21.7342 102.872" stroke="black" stroke-width="3" stroke-linecap="round" stroke-linejoin="round"/>
<path d="M15.9004 84.2041V81.6372" stroke="#FFF44F" stroke-width="3" stroke-linecap="round" stroke-linejoin="round"/>
<path d="M70.0383 76.9879L62.571 76.0545M62.571 76.0545C62.8043 71.6207 61.0308 62.4266 52.0701 61.1198C40.8691 59.4863 38.0688 69.5206 37.6021 71.8541M62.571 76.0545C58.6039 84.9219 54.1702 86.322 46.7029 85.3886C39.2356 84.4552 37.1354 74.1876 37.6021 71.8541M37.6021 71.8541L32.7018 71.3874M32.7018 71.3874C31.9239 75.1989 28.7348 82.7751 22.2008 82.5884C14.0335 82.355 11.9333 74.421 11.9333 70.2206M32.7018 71.3874C32.7018 64.6202 30.1349 58.0862 22.2008 57.6195C14.2668 57.1528 11.9333 66.0203 11.9333 70.2206M11.9333 70.2206L7.73291 69.7539" stroke="black" stroke-width="3" stroke-linecap="round" stroke-linejoin="round"/>
<path d="M474.698 217.647L482.674 239.084H488.407" stroke="black" stroke-width="3" stroke-linecap="round" stroke-linejoin="round"/>
<path d="M385.71 217.647L377.733 239.084H372" stroke="black" stroke-width="3" stroke-linecap="round" stroke-linejoin="round"/>
<path d="M452.287 164.219C463.137 170.498 470.25 181.31 473.732 193.352C477.223 205.42 477.32 218.559 471.172 229.514C465.054 240.416 453.963 247.776 441.734 250.369C430.274 252.798 419.223 248.087 408.802 242.737C397.904 237.142 385.924 231.298 381.987 219.697C377.931 207.743 382.651 194.919 388.844 183.919C394.986 173.01 403.766 163.491 415.721 159.779C427.911 155.994 441.24 157.825 452.287 164.219Z" fill="#1E90FF"/>
<circle cx="422.601" cy="186.988" r="2.2434" fill="black"/>
<circle cx="441.545" cy="186.988" r="2.2434" fill="black"/>
<path d="M431.575 188.234L430.328 196.46C431.076 196.46 433.818 196.46 433.818 196.46" stroke="black" stroke-width="3" stroke-linecap="round" stroke-linejoin="round"/>
<path d="M445.534 197.706C443.456 202.608 439.302 212.662 431.325 212.662C424.84 212.662 419.61 202.94 418.364 197.706" stroke="black" stroke-width="3" stroke-linecap="round" stroke-linejoin="round"/>
<path d="M422.847 245.805L386.638 252.869L383.965 239.169C386.94 239.31 391.927 241.449 388.071 248.88" stroke="black" stroke-width="3" stroke-linecap="round" stroke-linejoin="round"/>
<path d="M441.296 244.242L478.589 257.661L483.315 244.526C480.352 244.213 475.098 245.569 477.78 253.5" stroke="black" stroke-width="3" stroke-linecap="round" stroke-linejoin="round"/>
<path d="M474.448 193.967C474.7 182.397 468.964 182.867 468.964 186.489C468.964 188.981 468.734 190.735 468.964 193.967C469.214 197.457 474.199 205.433 474.448 193.967Z" fill="black"/>
<path d="M390.944 186.489C390.944 182.867 385.209 182.397 385.46 193.967C385.71 205.433 390.695 197.457 390.944 193.967C391.175 190.735 390.944 188.981 390.944 186.489Z" fill="black"/>
<path d="M390.944 186.489C390.944 182.867 385.209 182.397 385.46 193.967C385.71 205.433 390.695 197.457 390.944 193.967C391.175 190.735 390.944 188.981 390.944 186.489ZM390.944 186.489C393.769 175.77 405.451 153.486 431.575 155.081C457.698 156.677 467.552 177.1 468.964 186.489M468.964 186.489C468.964 182.867 474.7 182.397 474.448 193.967C474.199 205.433 469.214 197.457 468.964 193.967C468.734 190.735 468.964 188.981 468.964 186.489Z" stroke="black" stroke-width="3" stroke-linecap="round" stroke-linejoin="round"/>
<path d="M471.956 177.765C471.374 177.848 470.211 178.762 471.956 179.26C473.605 179.731 471.457 172.945 470.211 169.29" stroke="black" stroke-width="3" stroke-linecap="round" stroke-linejoin="round"/>
<path d="M476.691 168.265C476.133 168.082 475.219 168.094 476.029 169.606C476.84 171.118 478.044 163.837 478.545 160.007L484.563 159.642C484.062 163.472 482.857 170.754 482.047 169.242" stroke="black" stroke-width="3" stroke-linecap="round" stroke-linejoin="round"/>
<path d="M745.69 56.2303C751.672 59.2632 752.644 68.503 757.25 73.7873C760.981 78.0667 766.668 79.4033 769.985 84.0997C773.913 89.6592 777.522 95.9638 777.937 103.071C778.379 110.654 776.502 118.605 772.345 124.566C768.217 130.484 761.611 133.224 755.282 135.557C749.331 137.751 743.168 137.989 736.918 137.625C730.287 137.239 722.725 138.29 717.7 133.368C712.678 128.45 713.658 119.428 711.2 112.438C708.81 105.641 703.359 100.064 703.416 92.7473C703.475 85.2565 707.564 78.6609 711.512 72.6544C715.473 66.628 720.116 60.9876 726.219 58.0547C732.319 55.1233 739.642 53.1639 745.69 56.2303Z" fill="#32CD32"/>
<path d="M749.205 83.7322C749.205 76.8875 751.801 70.2788 759.826 69.8067C767.851 69.3347 770.211 78.3037 770.211 82.5521M759.826 95.0614C768.087 94.8254 770.211 86.8006 770.211 82.5521M770.211 82.5521L774.459 82.08L773.279 91.5031" stroke="black" stroke-width="3" stroke-linecap="round" stroke-linejoin="round"/>
<path d="M758.174 100C757.796 97.7343 755.971 94.8076 754.87 93.8635C754.398 91.9753 761.778 90.1452 763.13 93.8635C765.019 99.0561 764.311 101.652 767.143 104.013C769.22 105.743 772.335 106.452 774.224 106.137C774.224 107.238 773.044 109.677 768.323 110.621C763.603 111.565 759.905 108.34 758.646 106.609C758.803 105.193 758.552 102.266 758.174 100Z" fill="#32CD32" stroke="black" stroke-width="3" stroke-linecap="round" stroke-linejoin="round"/>
<path d="M748.732 99.056C748.354 93.2026 752.194 92.998 754.161 93.6274C755.577 94.3355 760.061 97.8757 758.645 107.081C756.976 117.938 737.405 118.077 744.957 114.162C751.329 110.857 749.204 106.373 748.732 99.056Z" fill="#32CD32" stroke="black" stroke-width="3" stroke-linecap="round" stroke-linejoin="round"/>
<path d="M746.137 86.0746C750.385 83.9504 754.964 84.4696 754.398 93.1554" stroke="black" stroke-width="3" stroke-linecap="round" stroke-linejoin="round"/>
<circle cx="743.54" cy="91.5031" r="2.36025" fill="black"/>
<circle cx="756.758" cy="83.4784" r="2.36025" fill="black"/>
<path d="M747.093 134.46L747.093 153.106H760.31C759.64 150.366 756.747 146.119 750.541 151.051" stroke="black" stroke-width="3" stroke-linecap="round" stroke-linejoin="round"/>
<path d="M737.875 136.112V155.466H751.093C750.422 152.726 747.53 148.48 741.323 153.411" stroke="black" stroke-width="3" stroke-linecap="round" stroke-linejoin="round"/>
<path d="M761.566 44.4788C756.471 51.5825 743.673 63.0946 725.356 66.8182M702.011 66.9852C710.52 68.5279 718.342 68.244 725.356 66.8182M725.356 66.8182C719.786 56.6459 710.265 35.6473 716.734 33.0315C724.821 29.7618 731.651 43.927 733.215 52.4304C734.78 60.9337 719.073 56.2661 729.853 32.0733C736.427 17.3188 744.325 41.2511 744.379 58.8558" stroke="black" stroke-width="3" stroke-linecap="round" stroke-linejoin="round"/>
<path d="M773.515 92.2113L771.627 88.6709" stroke="#32CD32" stroke-width="3" stroke-linecap="round" stroke-linejoin="round"/>
<path d="M714.037 111.565L722.534 118.41L723.714 129.975" stroke="black" stroke-width="3" stroke-linecap="round" stroke-linejoin="round"/>
<path d="M727.018 154.286V129.503C727.018 128.087 727.726 126.435 721.59 129.739" stroke="black" stroke-width="3" stroke-linecap="round" stroke-linejoin="round"/>
<path d="M857.771 26.6609C868.46 33.256 873.774 45.5497 876.197 57.8737C878.439 69.2713 875.659 80.532 870.402 90.8905C864.781 101.968 857.957 113.587 846.08 117.223C833.951 120.935 820.811 116.445 810.349 109.272C800.682 102.643 795.863 91.7537 792.54 80.5128C789.11 68.9114 786.152 56.4512 791.532 45.6156C797.164 34.2709 808.586 27.1551 820.763 23.6706C833.132 20.131 846.822 19.905 857.771 26.6609Z" fill="#FF5342"/>
<path d="M807.829 104.579L785.156 134.064L774 125.485C776.344 123.607 781.542 121.9 783.58 130.091" stroke="black" stroke-width="3" stroke-linecap="round" stroke-linejoin="round"/>
<path d="M824.369 114.814L824.43 153.516L838.504 153.494C837.785 150.578 834.698 146.061 828.098 151.323" stroke="black" stroke-width="3" stroke-linecap="round" stroke-linejoin="round"/>
<path d="M795.391 52.8813C787.447 52.6523 774.21 56.2143 784.814 72.2937C795.417 88.3731 795.05 83.0833 793.541 78.4286" stroke="black" stroke-width="3" stroke-linecap="round" stroke-linejoin="round"/>
<path d="M870.62 79.8546C872.394 84.517 876.435 93.8084 878.411 93.6745C880.88 93.5072 897.952 80.4833 901.059 71.9864" stroke="black" stroke-width="3" stroke-linecap="round" stroke-linejoin="round"/>
<path d="M860.266 22.5513C858.209 27.063 857.21 30.909 852.347 32.4997" stroke="black" stroke-width="3" stroke-linecap="round" stroke-linejoin="round"/>
<ellipse cx="855.62" cy="51.3569" rx="2.0105" ry="3.51837" transform="rotate(20.0858 855.62 51.3569)" fill="black"/>
<ellipse cx="827.987" cy="39.112" rx="2.0105" ry="3.51837" transform="rotate(20.0858 827.987 39.112)" fill="black"/>
<path d="M845.055 45.4766L838.192 45.0121L842.409 51.997" stroke="black" stroke-width="3" stroke-linecap="round" stroke-linejoin="round"/>
<path d="M860.158 66.7537C849.243 61.722 826.063 54.7199 815.838 51.8478C807.747 80.1016 819.387 91.4386 826.219 93.5754C848.164 100.733 860.158 66.7537 860.158 66.7537Z" stroke="black" stroke-width="3" stroke-linecap="round" stroke-linejoin="round"/>
<path d="M848.039 16.4745C846.28 19.1283 841.702 24.5318 837.46 24.9151" stroke="black" stroke-width="3" stroke-linecap="round" stroke-linejoin="round"/>
<path d="M855.074 20.6527C853.271 23.5743 848.631 29.3526 844.495 29.0933" stroke="black" stroke-width="3" stroke-linecap="round" stroke-linejoin="round"/>
</svg>
