<svg width="185" height="152" viewBox="0 0 185 152" fill="none" xmlns="http://www.w3.org/2000/svg">
<path fill-rule="evenodd" clip-rule="evenodd" d="M96.6954 46.4906L102.928 67.8155H83.0305L89.5033 46.4906C84.389 46.0913 74.1123 43.4716 73.9205 36.1876C68.6464 34.2708 58.146 26.9868 58.3377 13.1855C58.5295 -0.6157 68.7973 1.2053 73.9072 3.84095C73.9117 3.33394 73.9162 2.85358 73.9205 2.40332H112.278V3.84095C117.233 1.60464 127.142 0.34272 127.142 13.1855C127.142 26.0284 117.233 33.8714 112.278 36.1876C112.278 39.5421 106.477 46.1073 96.6954 46.4906ZM121.868 13.1855C122.049 21.428 115.55 28.2807 112.278 30.6767V10.3103C115.399 7.83437 121.686 4.94313 121.868 13.1855ZM63.6119 13.1855C63.6119 23.3466 70.3503 29.0793 73.8393 30.6767C73.7974 25.2666 73.8145 18.1638 73.8488 11.9875C70.5165 8.15384 63.6119 4.79937 63.6119 13.1855Z" fill="#FFF44F"/>
<path d="M183 150H127.381M183 150C183 137.141 183 110.801 183 108.309M183 150V108.309M6.0755 89.8591C3.19868 89.8591 2 91.0572 2 94.6512V150H57.139M6.0755 89.8591C9.52768 89.8591 38.8393 89.8591 53.0635 89.8591M6.0755 89.8591H53.0635M53.0635 89.8591C56.1801 89.8591 57.139 90.6259 57.139 94.6512M57.139 94.6512C57.139 98.6766 57.139 133.228 57.139 150M57.139 94.6512V71.8888C57.139 69.0135 58.098 67.8155 61.4543 67.8155M57.139 94.6512V150M57.139 150H127.381M61.4543 67.8155C63.017 67.8155 71.9422 67.8155 83.0305 67.8155M61.4543 67.8155H83.0305M123.546 67.8155C125.464 67.8155 127.381 69.2531 127.381 71.8888M123.546 67.8155C117.923 67.8155 110.586 67.8155 102.928 67.8155M123.546 67.8155H102.928M127.381 71.8888C127.381 73.4251 127.381 90.636 127.381 109.746M127.381 71.8888V109.746M127.381 150C127.381 139.347 127.381 124.017 127.381 109.746M127.381 150V109.746M127.381 109.746C127.381 106.046 129.06 104.475 132.176 104.475M132.176 104.475C135.82 104.475 164.54 104.475 178.445 104.475M132.176 104.475H178.445M178.445 104.475C181.322 104.475 183 106.152 183 108.309M83.0305 67.8155L89.5033 46.4906C84.389 46.0913 74.1123 43.4716 73.9205 36.1876M83.0305 67.8155C89.2859 67.8155 96.2298 67.8155 102.928 67.8155M83.0305 67.8155H102.928M73.9205 36.1876C68.6464 34.2708 58.146 26.9868 58.3377 13.1855C58.5295 -0.6157 68.7973 1.2053 73.9072 3.84095M73.9205 36.1876C73.8822 34.7331 73.856 32.8402 73.8393 30.6767M112.278 36.1876C112.278 39.5421 106.477 46.1073 96.6954 46.4906L102.928 67.8155M112.278 36.1876C117.233 33.8714 127.142 26.0284 127.142 13.1855C127.142 0.34272 117.233 1.60464 112.278 3.84095M112.278 36.1876V30.6767M112.278 3.84095V2.40332H73.9205C73.9162 2.85358 73.9117 3.33394 73.9072 3.84095M112.278 3.84095V10.3103M112.278 30.6767C115.55 28.2807 122.049 21.428 121.868 13.1855C121.686 4.94313 115.399 7.83437 112.278 10.3103M112.278 30.6767V10.3103M73.9072 3.84095C73.8869 6.12182 73.8658 8.94202 73.8488 11.9875M73.8393 30.6767C70.3503 29.0793 63.6119 23.3466 63.6119 13.1855C63.6119 4.79937 70.5165 8.15384 73.8488 11.9875M73.8393 30.6767C73.7974 25.2666 73.8145 18.1638 73.8488 11.9875" stroke="#4A4A4A" stroke-width="3" stroke-linejoin="round"/>
<path d="M24.0759 122.219L21.2646 122.411C21.2646 117.945 22.786 113 29.8307 113C36.0156 113 38 116.988 38 119.699C38 124.388 33.7996 126.813 30.393 129.301L24.8366 133.352H38V136H21V132.714L27.8794 127.77C29.963 126.27 35.0233 123.495 35.0233 119.699C35.0233 116.7 32.5428 115.712 29.8307 115.712C25.3327 115.712 24.0759 118.327 24.0759 122.219Z" fill="#4A4A4A"/>
<path d="M91.804 88H97.924V135.6H91.804V96.228L82.012 106.292L78 102.212L91.804 88Z" fill="#4A4A4A"/>
<path d="M154.748 124.552C159.783 124.552 160.812 122.721 160.812 121.301C160.812 119.743 159.362 118.213 156.224 118.213C153.192 118.213 151.795 119.934 151.795 123.049L149.475 122.721C149.475 119.224 151.426 116 156.33 116C160.944 116 163 118.596 163 121.355C163 123.596 161.576 125.399 158.254 125.672V125.781C160.944 125.918 163 127.749 163 130.044C163 132.885 161.365 136 156.277 136C151.188 136 149 132.53 149 128.404L151.32 128.077C151.267 131.656 152.876 133.814 156.171 133.814C159.52 133.814 160.812 132.011 160.812 130.153C160.812 128.623 159.652 126.765 154.748 126.765V124.552Z" fill="#4A4A4A"/>
</svg>
