<svg width="175" height="182" viewBox="0 0 175 182" fill="none" xmlns="http://www.w3.org/2000/svg">
<path d="M21.2967 61.855L7.41503 1.99981" stroke="#FF5342" stroke-width="3" stroke-linecap="round" stroke-linejoin="round"/>
<path d="M98.0501 18.4203C82.8147 21.5445 71.4076 33.5819 63.3484 46.8833C55.8949 59.1849 54.3391 73.4626 56.0472 87.7443C57.8739 103.017 60.8682 119.432 73.1353 128.711C85.6616 138.186 102.853 138.551 118.069 134.658C132.13 131.061 142.365 120.446 151.01 108.787C159.932 96.7533 168.672 83.5211 167.023 68.6321C165.297 53.0435 155.04 39.9114 142.36 30.6806C129.481 21.3041 113.657 15.2199 98.0501 18.4203Z" fill="#FF5342"/>
<path d="M111.833 130.832V176.888H129.259C128.375 173.276 124.562 167.677 116.379 174.179" stroke="black" stroke-width="3" stroke-linecap="round" stroke-linejoin="round"/>
<path d="M101.875 132.077V180H84.4482C85.3322 176.388 89.1458 170.789 97.3288 177.291" stroke="black" stroke-width="3" stroke-linecap="round" stroke-linejoin="round"/>
<path d="M159.445 75.4407C168.78 78.5526 182.659 88.3239 163.49 102.514C144.321 116.704 146.997 110.709 150.731 105.937" stroke="black" stroke-width="3" stroke-linecap="round" stroke-linejoin="round"/>
<path d="M60.4867 74.8182C56.4412 79.4861 43.023 95.4011 39.9112 94.7343C35.5545 93.8007 20.3063 72.9511 18.1279 62.3707C18.0242 61.2296 18.5636 59.0721 21.551 59.57" stroke="black" stroke-width="3" stroke-linecap="round" stroke-linejoin="round"/>
<path d="M96.8957 12.5803C97.3699 18.7021 96.8957 23.5995 101.875 27.5174" stroke="black" stroke-width="3" stroke-linecap="round" stroke-linejoin="round"/>
<path d="M89.0789 58.2963L80.9 60.6747L88.7748 67.0043" stroke="black" stroke-width="3" stroke-linecap="round" stroke-linejoin="round"/>
<path d="M113.7 10.7131C114.617 14.5474 117.644 22.7784 122.413 25.0278" stroke="black" stroke-width="3" stroke-linecap="round" stroke-linejoin="round"/>
<path d="M103.742 12.5803C104.596 16.7446 107.535 25.4375 112.455 26.895" stroke="black" stroke-width="3" stroke-linecap="round" stroke-linejoin="round"/>
<path d="M95.3027 73.9084C94.2654 75.8793 90.9461 79.1364 85.967 76.398" stroke="black" stroke-width="3" stroke-linecap="round" stroke-linejoin="round"/>
<circle cx="99.037" cy="55.237" r="2.8007" fill="black"/>
<circle cx="77.8761" cy="52.1252" r="2.8007" fill="black"/>
<path d="M135.135 58.9709L125.177 57.7262M125.177 57.7262C125.488 51.8136 123.123 39.5528 111.173 37.8101C96.2362 35.6318 92.5019 49.0129 91.8796 52.1248M125.177 57.7262C119.886 69.5513 113.974 71.4185 104.016 70.1738C94.0579 68.929 91.2572 55.2367 91.8796 52.1248M91.8796 52.1248L85.3447 51.5024M85.3447 51.5024C84.3074 56.5852 80.0545 66.6885 71.3412 66.4395C60.4496 66.1283 57.6489 55.5479 57.6489 49.9465M85.3447 51.5024C85.3447 42.478 81.9216 33.7647 71.3412 33.1423C60.7608 32.5199 57.6489 44.3451 57.6489 49.9465M57.6489 49.9465L52.0475 49.3241" stroke="black" stroke-width="3" stroke-linecap="round" stroke-linejoin="round"/>
</svg>
